# xmcd CD database file
#
# Track frame offsets:
#	150
#	20832
#	48287
#
# Disc length: 916 seconds
#
# Revision: 0
# Processed by: cddbd v1.5.1PL0 Copyright (c) Steve Scherf et al.
# Submitted via: CDex 1.51
#
DISCID=1f039203
DTITLE=今井美樹 - Blue Moon Blue
DYEAR=1992
DGENRE=JPop
TTITLE0=Blue Moon Blue
TTITLE1=かげろう
TTITLE2=Blue Moon Blue(カラオケ)
EXTD=YEAR: 1992
EXTT0=
EXTT1=
EXTT2=
PLAYORDER=
